<svg width="1600" height="900" viewBox="0 0 1600 900" fill="none" xmlns="http://www.w3.org/2000/svg">
<defs>
  <linearGradient id="bg" x1="0" y1="0" x2="1600" y2="900" gradientUnits="userSpaceOnUse">
    <stop stop-color="#06122F"/>
    <stop offset="1" stop-color="#02070F"/>
  </linearGradient>
  <radialGradient id="glow" cx="0" cy="0" r="1" gradientUnits="userSpaceOnUse" gradientTransform="translate(1020 530) rotate(180) scale(600 360)">
    <stop stop-color="#2A63DA" stop-opacity="0.6"/>
    <stop offset="1" stop-color="#2A63DA" stop-opacity="0"/>
  </radialGradient>
</defs>
<rect width="1600" height="900" rx="24" fill="url(#bg)"/>
<ellipse cx="1020" cy="530" rx="560" ry="330" fill="url(#glow)"/>
<rect x="360" y="150" width="880" height="600" rx="24" fill="#0E1526" stroke="#2A3F67" stroke-width="4"/>
<rect x="400" y="200" width="180" height="500" rx="14" fill="#111B31" stroke="#223658"/>
<rect x="620" y="200" width="580" height="500" rx="14" fill="#121C33" stroke="#223658"/>
<rect x="650" y="250" width="250" height="56" rx="10" fill="#1A2742" stroke="#2F4C84"/>
<rect x="650" y="330" width="250" height="56" rx="10" fill="#1A2742" stroke="#2F4C84"/>
<rect x="650" y="410" width="250" height="56" rx="10" fill="#1A2742" stroke="#2F4C84"/>
<rect x="650" y="490" width="250" height="56" rx="10" fill="#1A2742" stroke="#2F4C84"/>
<rect x="950" y="250" width="220" height="24" rx="8" fill="#243B66"/>
<rect x="950" y="298" width="220" height="24" rx="8" fill="#243B66"/>
<rect x="950" y="346" width="220" height="24" rx="8" fill="#243B66"/>
<rect x="950" y="394" width="220" height="24" rx="8" fill="#243B66"/>
<rect x="950" y="442" width="220" height="24" rx="8" fill="#243B66"/>
<rect x="950" y="490" width="220" height="24" rx="8" fill="#243B66"/>
<rect x="950" y="538" width="220" height="24" rx="8" fill="#243B66"/>
<text x="440" y="255" fill="#E7EFFD" font-size="20" font-family="Arial">Combat</text>
<text x="440" y="310" fill="#6F86AE" font-size="20" font-family="Arial">General</text>
<text x="440" y="365" fill="#6F86AE" font-size="20" font-family="Arial">Weapon</text>
<text x="440" y="420" fill="#6F86AE" font-size="20" font-family="Arial">Visuals</text>
<text x="440" y="475" fill="#6F86AE" font-size="20" font-family="Arial">Entities</text>
<text x="440" y="530" fill="#6F86AE" font-size="20" font-family="Arial">Settings</text>
</svg>
